<svg xmlns="http://www.w3.org/2000/svg" width="82" height="56" viewBox="0 0 82 56">
  <g fill="none" fill-rule="evenodd" transform="translate(.5)">
    <path stroke="#DE1587" stroke-dasharray="3 4" stroke-linecap="round" stroke-linejoin="round" d="M0,47.3533361 C0,47.3533361 39.7735911,73.9261185 61,28"/>
    <g fill="#DE1587" fill-rule="nonzero" transform="translate(53)">
      <path d="M6.773375 3.91770313L5.77828125 3.91770313C5.92796094 2.80957031 6.54067969 2.75389844 6.82264844 2.72825 7.10434375 2.70260156 7.31997656 2.46646094 7.31997656 2.18361719L7.31997656.54709375C7.31997656.396757813 7.25807031.252984375 7.14880469.149679688 7.03953906.046375 6.89242969-.0071640625 6.74242188.00109375 5.01375.098328125 2.953125.971140625 2.953125 4.577125L2.953125 7.4230625C2.953125 7.89813281 3.33960156 8.28460938 3.81467188 8.28460938L6.77342969 8.28460938C7.2485 8.28460938 7.63497656 7.89807813 7.63492188 7.42300781L7.63492188 4.77925C7.63492188 4.30417969 7.24844531 3.91770313 6.773375 3.91770313zM6.54122656 7.19080469L4.046875 7.19080469 4.046875 4.577125C4.046875 2.06095313 5.16583594 1.35821875 6.22622656 1.15986719L6.22622656 1.73485156C5.49390625 1.95775781 4.6510625 2.61608594 4.6510625 4.46457813 4.6510625 4.76661719 4.89589844 5.01145313 5.1979375 5.01145313L6.54122656 5.01145313 6.54122656 7.19080469zM12.3643516 3.91770313L11.3692031 3.91770313C11.5188828 2.80957031 12.1316016 2.75389844 12.4135703 2.72825 12.6952656 2.70260156 12.9108984 2.46646094 12.9108984 2.18361719L12.9108984.54709375C12.9108984.396757813 12.8489922.252984375 12.7397266.149679688 12.6304609.046375 12.4832422-.0071640625 12.3333438.00109375 10.6046719.098328125 8.54404687.971140625 8.54404687 4.577125L8.54404687 7.4230625C8.54404687 7.89813281 8.93052344 8.28460938 9.40559375 8.28460938L12.3643516 8.28460938C12.8394219 8.28460938 13.2259531 7.89807813 13.2258984 7.42295313L13.2258984 4.77925C13.2258984 4.30417969 12.8394219 3.91770313 12.3643516 3.91770313zM12.1321484 7.19085938L9.63779687 7.19085938 9.63779687 4.577125C9.63779687 2.06095313 10.7567578 1.35821875 11.8171484 1.15986719L11.8171484 1.73485156C11.0848281 1.95775781 10.2419844 2.61608594 10.2419844 4.46457813 10.2419844 4.76661719 10.4868203 5.01145313 10.7888594 5.01145313L12.1321484 5.01145313 12.1321484 7.19085938z"/>
      <path d="M18.2802266,4.2581875 L17.5911094,4.2581875 C17.2890703,4.2581875 17.0442344,4.50302344 17.0442344,4.8050625 C17.0442344,5.10710156 17.2890703,5.3519375 17.5911094,5.3519375 L18.2802266,5.3519375 C23.0366172,5.3519375 26.90625,9.22157031 26.90625,13.9779609 C26.90625,18.0375234 24.0270625,21.5878359 20.0600859,22.4197969 C19.8068281,22.4729531 19.6254844,22.6962969 19.6254844,22.9550234 L19.6254844,26.1325859 L16.2570625,22.7641641 C16.1545234,22.661625 16.0153984,22.6039844 15.8703672,22.6039844 L9.71977344,22.6039844 C4.96338281,22.6039844 1.09375,18.7343516 1.09375,13.9779609 C1.09375,12.5120625 1.46797656,11.0645391 2.17601562,9.79174219 C2.32290625,9.52782031 2.22791406,9.19482813 1.96399219,9.04799219 C1.70001562,8.90110156 1.36702344,8.99609375 1.22024219,9.26001563 C0.421914062,10.6949609 0,12.3263984 0,13.9779609 C0,19.3375 4.36023438,23.6977344 9.71977344,23.6977344 L15.6438516,23.6977344 L19.7856641,27.8395469 C19.8902812,27.9441641 20.0301172,27.9997266 20.1724687,27.9997266 C20.2429062,27.9997266 20.314,27.9861094 20.3816484,27.9580547 C20.5859609,27.8734531 20.7192344,27.6740625 20.7192344,27.4528516 L20.7192344,23.3884219 C22.6979922,22.8756719 24.4872031,21.7347266 25.7946172,20.1431016 C27.2167656,18.4118594 28,16.2223906 28,13.9779609 C28,8.61847656 23.6397656,4.2581875 18.2802266,4.2581875 Z"/>
      <path d="M20.7300625 9.70659375L7.26999219 9.70659375C6.96795313 9.70659375 6.72311719 9.95142969 6.72311719 10.2534687 6.72311719 10.5555078 6.96795313 10.8003437 7.26999219 10.8003437L20.7300078 10.8003437C21.0320469 10.8003437 21.2769375 10.5555078 21.2769375 10.2534687 21.2769375 9.95142969 21.0321016 9.70659375 20.7300625 9.70659375zM20.7300625 14.1398906L7.26999219 14.1398906C6.96795312 14.1398906 6.72311719 14.3847813 6.72311719 14.6867656 6.72311719 14.98875 6.96795312 15.2336406 7.26999219 15.2336406L20.7300078 15.2336406C21.0320469 15.2336406 21.2769375 14.98875 21.2769375 14.6867656 21.2769375 14.3847813 21.0321016 14.1398906 20.7300625 14.1398906zM20.7300078 18.4565937L13.5554453 18.4565937C13.2534062 18.4565937 13.0085703 18.7014844 13.0085703 19.0034687 13.0085703 19.3054531 13.2534062 19.5503437 13.5554453 19.5503437L20.7300078 19.5503437C21.0320469 19.5503437 21.2768828 19.3054531 21.2768828 19.0034687 21.2768828 18.7014844 21.0320469 18.4565937 20.7300078 18.4565937z"/>
    </g>
  </g>
</svg>
